%TF.GenerationSoftware,KiCad,Pcbnew,(6.0.4)*%
%TF.CreationDate,2022-05-17T18:27:42+01:00*%
%TF.ProjectId,MacroPad,4d616372-6f50-4616-942e-6b696361645f,rev?*%
%TF.SameCoordinates,Original*%
%TF.FileFunction,Soldermask,Bot*%
%TF.FilePolarity,Negative*%
%FSLAX46Y46*%
G04 Gerber Fmt 4.6, Leading zero omitted, Abs format (unit mm)*
G04 Created by KiCad (PCBNEW (6.0.4)) date 2022-05-17 18:27:42*
%MOMM*%
%LPD*%
G01*
G04 APERTURE LIST*
%ADD10C,6.400000*%
%ADD11C,4.000000*%
%ADD12C,1.700000*%
%ADD13C,2.200000*%
%ADD14R,2.000000X2.000000*%
%ADD15C,2.000000*%
%ADD16R,3.200000X2.000000*%
G04 APERTURE END LIST*
D10*
%TO.C,UwU*%
X204000000Y-124000000D03*
%TD*%
D11*
%TO.C,SWM1*%
X135012000Y-112562000D03*
D12*
X129932000Y-112562000D03*
X140092000Y-112562000D03*
D13*
X132472000Y-117642000D03*
X138822000Y-115102000D03*
%TD*%
D12*
%TO.C,SW5*%
X178192000Y-93512000D03*
X168032000Y-93512000D03*
D11*
X173112000Y-93512000D03*
D13*
X170572000Y-98592000D03*
X176922000Y-96052000D03*
%TD*%
D12*
%TO.C,SW7*%
X159142000Y-74462000D03*
D11*
X154062000Y-74462000D03*
D12*
X148982000Y-74462000D03*
D13*
X151522000Y-79542000D03*
X157872000Y-77002000D03*
%TD*%
D12*
%TO.C,SW8*%
X168032000Y-74462000D03*
X178192000Y-74462000D03*
D11*
X173112000Y-74462000D03*
D13*
X170572000Y-79542000D03*
X176922000Y-77002000D03*
%TD*%
D12*
%TO.C,SW3*%
X197242000Y-112562000D03*
X187082000Y-112562000D03*
D11*
X192162000Y-112562000D03*
D13*
X189622000Y-117642000D03*
X195972000Y-115102000D03*
%TD*%
D10*
%TO.C,Daddy*%
X114000000Y-124000000D03*
%TD*%
%TO.C,me*%
X204000000Y-60000000D03*
%TD*%
D12*
%TO.C,SW4*%
X148982000Y-93512000D03*
D11*
X154062000Y-93512000D03*
D12*
X159142000Y-93512000D03*
D13*
X151522000Y-98592000D03*
X157872000Y-96052000D03*
%TD*%
D14*
%TO.C,SWR1*%
X121042000Y-82082000D03*
D15*
X121042000Y-87082000D03*
X121042000Y-84582000D03*
D16*
X128542000Y-90182000D03*
X128542000Y-78982000D03*
D15*
X135542000Y-87082000D03*
X135542000Y-82082000D03*
%TD*%
D12*
%TO.C,SW2*%
X178192000Y-112562000D03*
D11*
X173112000Y-112562000D03*
D12*
X168032000Y-112562000D03*
D13*
X170572000Y-117642000D03*
X176922000Y-115102000D03*
%TD*%
D10*
%TO.C,mount*%
X114000000Y-60000000D03*
%TD*%
D11*
%TO.C,SW9*%
X192162000Y-74462000D03*
D12*
X197242000Y-74462000D03*
X187082000Y-74462000D03*
D13*
X189622000Y-79542000D03*
X195972000Y-77002000D03*
%TD*%
D11*
%TO.C,SW6*%
X192162000Y-93512000D03*
D12*
X187082000Y-93512000D03*
X197242000Y-93512000D03*
D13*
X189622000Y-98592000D03*
X195972000Y-96052000D03*
%TD*%
D12*
%TO.C,SW1*%
X159142000Y-112562000D03*
D11*
X154062000Y-112562000D03*
D12*
X148982000Y-112562000D03*
D13*
X151522000Y-117642000D03*
X157872000Y-115102000D03*
%TD*%
M02*
