%TF.GenerationSoftware,KiCad,Pcbnew,(6.0.4)*%
%TF.CreationDate,2022-05-17T18:27:42+01:00*%
%TF.ProjectId,MacroPad,4d616372-6f50-4616-942e-6b696361645f,rev?*%
%TF.SameCoordinates,Original*%
%TF.FileFunction,Soldermask,Top*%
%TF.FilePolarity,Negative*%
%FSLAX46Y46*%
G04 Gerber Fmt 4.6, Leading zero omitted, Abs format (unit mm)*
G04 Created by KiCad (PCBNEW (6.0.4)) date 2022-05-17 18:27:42*
%MOMM*%
%LPD*%
G01*
G04 APERTURE LIST*
G04 Aperture macros list*
%AMRoundRect*
0 Rectangle with rounded corners*
0 $1 Rounding radius*
0 $2 $3 $4 $5 $6 $7 $8 $9 X,Y pos of 4 corners*
0 Add a 4 corners polygon primitive as box body*
4,1,4,$2,$3,$4,$5,$6,$7,$8,$9,$2,$3,0*
0 Add four circle primitives for the rounded corners*
1,1,$1+$1,$2,$3*
1,1,$1+$1,$4,$5*
1,1,$1+$1,$6,$7*
1,1,$1+$1,$8,$9*
0 Add four rect primitives between the rounded corners*
20,1,$1+$1,$2,$3,$4,$5,0*
20,1,$1+$1,$4,$5,$6,$7,0*
20,1,$1+$1,$6,$7,$8,$9,0*
20,1,$1+$1,$8,$9,$2,$3,0*%
G04 Aperture macros list end*
%ADD10R,1.200000X0.900000*%
%ADD11C,6.400000*%
%ADD12C,4.000000*%
%ADD13C,1.700000*%
%ADD14C,2.200000*%
%ADD15RoundRect,0.386600X-1.215000X-0.665000X1.215000X-0.665000X1.215000X0.665000X-1.215000X0.665000X0*%
%ADD16RoundRect,0.386600X0.665000X-1.215000X0.665000X1.215000X-0.665000X1.215000X-0.665000X-1.215000X0*%
%ADD17R,2.000000X2.000000*%
%ADD18C,2.000000*%
%ADD19R,3.200000X2.000000*%
G04 APERTURE END LIST*
D10*
%TO.C,D9*%
X201814000Y-71032000D03*
X201814000Y-67732000D03*
%TD*%
%TO.C,D3*%
X201814000Y-108624000D03*
X201814000Y-105324000D03*
%TD*%
%TO.C,DR1*%
X144664000Y-88812000D03*
X144664000Y-85512000D03*
%TD*%
%TO.C,D1*%
X163714000Y-108624000D03*
X163714000Y-105324000D03*
%TD*%
%TO.C,D5*%
X182510000Y-88812000D03*
X182510000Y-85512000D03*
%TD*%
D11*
%TO.C,UwU*%
X204000000Y-124000000D03*
%TD*%
D10*
%TO.C,D8*%
X182764000Y-71032000D03*
X182764000Y-67732000D03*
%TD*%
%TO.C,D4*%
X163714000Y-88812000D03*
X163714000Y-85512000D03*
%TD*%
D12*
%TO.C,SWM1*%
X135012000Y-112562000D03*
D13*
X129932000Y-112562000D03*
X140092000Y-112562000D03*
D14*
X132472000Y-117642000D03*
X138822000Y-115102000D03*
%TD*%
D13*
%TO.C,SW5*%
X178192000Y-93512000D03*
X168032000Y-93512000D03*
D12*
X173112000Y-93512000D03*
D14*
X170572000Y-98592000D03*
X176922000Y-96052000D03*
%TD*%
D15*
%TO.C,PCB1*%
X136578000Y-52138600D03*
X136578000Y-54678600D03*
X136578000Y-57218600D03*
X136578000Y-59758600D03*
X120238000Y-57218600D03*
X136578000Y-62298600D03*
X136578000Y-64838600D03*
X120238000Y-52138600D03*
X136578000Y-67378600D03*
X136578000Y-69918600D03*
X120238000Y-67378600D03*
X120238000Y-64838600D03*
X120238000Y-62298600D03*
X120238000Y-59758600D03*
X120238000Y-54678600D03*
X120238000Y-69918600D03*
D16*
X128408000Y-70358600D03*
X125868000Y-70358600D03*
X130948000Y-70358600D03*
%TD*%
D13*
%TO.C,SW7*%
X159142000Y-74462000D03*
D12*
X154062000Y-74462000D03*
D13*
X148982000Y-74462000D03*
D14*
X151522000Y-79542000D03*
X157872000Y-77002000D03*
%TD*%
D13*
%TO.C,SW8*%
X168032000Y-74462000D03*
X178192000Y-74462000D03*
D12*
X173112000Y-74462000D03*
D14*
X170572000Y-79542000D03*
X176922000Y-77002000D03*
%TD*%
D13*
%TO.C,SW3*%
X197242000Y-112562000D03*
X187082000Y-112562000D03*
D12*
X192162000Y-112562000D03*
D14*
X189622000Y-117642000D03*
X195972000Y-115102000D03*
%TD*%
D11*
%TO.C,Daddy*%
X114000000Y-124000000D03*
%TD*%
%TO.C,me*%
X204000000Y-60000000D03*
%TD*%
D13*
%TO.C,SW4*%
X148982000Y-93512000D03*
D12*
X154062000Y-93512000D03*
D13*
X159142000Y-93512000D03*
D14*
X151522000Y-98592000D03*
X157872000Y-96052000D03*
%TD*%
D10*
%TO.C,D6*%
X201814000Y-88812000D03*
X201814000Y-85512000D03*
%TD*%
D17*
%TO.C,SWR1*%
X121042000Y-82082000D03*
D18*
X121042000Y-87082000D03*
X121042000Y-84582000D03*
D19*
X128542000Y-90182000D03*
X128542000Y-78982000D03*
D18*
X135542000Y-87082000D03*
X135542000Y-82082000D03*
%TD*%
D13*
%TO.C,SW2*%
X178192000Y-112562000D03*
D12*
X173112000Y-112562000D03*
D13*
X168032000Y-112562000D03*
D14*
X170572000Y-117642000D03*
X176922000Y-115102000D03*
%TD*%
D11*
%TO.C,mount*%
X114000000Y-60000000D03*
%TD*%
D12*
%TO.C,SW9*%
X192162000Y-74462000D03*
D13*
X197242000Y-74462000D03*
X187082000Y-74462000D03*
D14*
X189622000Y-79542000D03*
X195972000Y-77002000D03*
%TD*%
D10*
%TO.C,D2*%
X182764000Y-108624000D03*
X182764000Y-105324000D03*
%TD*%
D12*
%TO.C,SW6*%
X192162000Y-93512000D03*
D13*
X187082000Y-93512000D03*
X197242000Y-93512000D03*
D14*
X189622000Y-98592000D03*
X195972000Y-96052000D03*
%TD*%
D13*
%TO.C,SW1*%
X159142000Y-112562000D03*
D12*
X154062000Y-112562000D03*
D13*
X148982000Y-112562000D03*
D14*
X151522000Y-117642000D03*
X157872000Y-115102000D03*
%TD*%
D10*
%TO.C,DM1*%
X144664000Y-108624000D03*
X144664000Y-105324000D03*
%TD*%
%TO.C,D7*%
X163714000Y-71032000D03*
X163714000Y-67732000D03*
%TD*%
M02*
