M48
; DRILL file {KiCad (6.0.4)} date Tue May 17 18:27:13 2022
; FORMAT={-:-/ absolute / inch / decimal}
; #@! TF.CreationDate,2022-05-17T18:27:13+01:00
; #@! TF.GenerationSoftware,Kicad,Pcbnew,(6.0.4)
; #@! TF.FileFunction,Plated,1,2,PTH
FMAT,2
INCH
; #@! TA.AperFunction,Plated,PTH,ViaDrill
T1C0.0157
; #@! TA.AperFunction,Plated,PTH,ComponentDrill
T2C0.0394
; #@! TA.AperFunction,Plated,PTH,ComponentDrill
T3C0.0591
; #@! TA.AperFunction,Plated,PTH,ComponentDrill
T4C0.1260
%
G90
G05
T1
X4.5954Y-2.1516
X4.7354Y-2.8816
X5.0554Y-2.8816
X5.5654Y-2.4116
X5.6354Y-2.8716
X5.6354Y-4.0816
X6.2154Y-2.4716
X6.9654Y-2.3716
X7.7154Y-2.2716
T2
X4.7654Y-3.2316
X4.7654Y-3.33
X4.7654Y-3.4284
X5.3363Y-3.2316
X5.3363Y-3.4284
T3
X5.2154Y-4.6316
X5.4654Y-4.5316
X5.9654Y-3.1316
X5.9654Y-3.8816
X5.9654Y-4.6316
X6.2154Y-3.0316
X6.2154Y-3.7816
X6.2154Y-4.5316
X6.7154Y-3.1316
X6.7154Y-3.8816
X6.7154Y-4.6316
X6.9654Y-3.0316
X6.9654Y-3.7816
X6.9654Y-4.5316
X7.4654Y-3.1316
X7.4654Y-3.8816
X7.4654Y-4.6316
X7.7154Y-3.0316
X7.7154Y-3.7816
X7.7154Y-4.5316
T4
X4.4882Y-2.3622
X4.4882Y-4.8819
X8.0315Y-2.3622
X8.0315Y-4.8819
T3
G00X5.0351Y-3.1095
M15
G01X5.0863Y-3.1095
M16
G05
G00X5.0351Y-3.5505
M15
G01X5.0863Y-3.5505
M16
G05
T0
M30
