%TF.GenerationSoftware,KiCad,Pcbnew,(6.0.4)*%
%TF.CreationDate,2022-05-17T18:27:42+01:00*%
%TF.ProjectId,MacroPad,4d616372-6f50-4616-942e-6b696361645f,rev?*%
%TF.SameCoordinates,Original*%
%TF.FileFunction,Legend,Top*%
%TF.FilePolarity,Positive*%
%FSLAX46Y46*%
G04 Gerber Fmt 4.6, Leading zero omitted, Abs format (unit mm)*
G04 Created by KiCad (PCBNEW (6.0.4)) date 2022-05-17 18:27:42*
%MOMM*%
%LPD*%
G01*
G04 APERTURE LIST*
%ADD10C,0.150000*%
%ADD11C,0.120000*%
G04 APERTURE END LIST*
D10*
X113141809Y-98512380D02*
X113141809Y-97512380D01*
X114808476Y-98512380D02*
X114808476Y-97512380D01*
X114808476Y-98464761D02*
X114713238Y-98512380D01*
X114522761Y-98512380D01*
X114427523Y-98464761D01*
X114379904Y-98417142D01*
X114332285Y-98321904D01*
X114332285Y-98036190D01*
X114379904Y-97940952D01*
X114427523Y-97893333D01*
X114522761Y-97845714D01*
X114713238Y-97845714D01*
X114808476Y-97893333D01*
X115284666Y-98512380D02*
X115284666Y-97845714D01*
X115284666Y-98036190D02*
X115332285Y-97940952D01*
X115379904Y-97893333D01*
X115475142Y-97845714D01*
X115570380Y-97845714D01*
X116284666Y-98464761D02*
X116189428Y-98512380D01*
X115998952Y-98512380D01*
X115903714Y-98464761D01*
X115856095Y-98369523D01*
X115856095Y-97988571D01*
X115903714Y-97893333D01*
X115998952Y-97845714D01*
X116189428Y-97845714D01*
X116284666Y-97893333D01*
X116332285Y-97988571D01*
X116332285Y-98083809D01*
X115856095Y-98179047D01*
X116713238Y-98464761D02*
X116808476Y-98512380D01*
X116998952Y-98512380D01*
X117094190Y-98464761D01*
X117141809Y-98369523D01*
X117141809Y-98321904D01*
X117094190Y-98226666D01*
X116998952Y-98179047D01*
X116856095Y-98179047D01*
X116760857Y-98131428D01*
X116713238Y-98036190D01*
X116713238Y-97988571D01*
X116760857Y-97893333D01*
X116856095Y-97845714D01*
X116998952Y-97845714D01*
X117094190Y-97893333D01*
X117522761Y-98464761D02*
X117618000Y-98512380D01*
X117808476Y-98512380D01*
X117903714Y-98464761D01*
X117951333Y-98369523D01*
X117951333Y-98321904D01*
X117903714Y-98226666D01*
X117808476Y-98179047D01*
X117665619Y-98179047D01*
X117570380Y-98131428D01*
X117522761Y-98036190D01*
X117522761Y-97988571D01*
X117570380Y-97893333D01*
X117665619Y-97845714D01*
X117808476Y-97845714D01*
X117903714Y-97893333D01*
X118760857Y-98464761D02*
X118665619Y-98512380D01*
X118475142Y-98512380D01*
X118379904Y-98464761D01*
X118332285Y-98369523D01*
X118332285Y-97988571D01*
X118379904Y-97893333D01*
X118475142Y-97845714D01*
X118665619Y-97845714D01*
X118760857Y-97893333D01*
X118808476Y-97988571D01*
X118808476Y-98083809D01*
X118332285Y-98179047D01*
X119665619Y-98512380D02*
X119665619Y-97512380D01*
X119665619Y-98464761D02*
X119570380Y-98512380D01*
X119379904Y-98512380D01*
X119284666Y-98464761D01*
X119237047Y-98417142D01*
X119189428Y-98321904D01*
X119189428Y-98036190D01*
X119237047Y-97940952D01*
X119284666Y-97893333D01*
X119379904Y-97845714D01*
X119570380Y-97845714D01*
X119665619Y-97893333D01*
X120903714Y-98512380D02*
X120903714Y-97845714D01*
X120903714Y-97940952D02*
X120951333Y-97893333D01*
X121046571Y-97845714D01*
X121189428Y-97845714D01*
X121284666Y-97893333D01*
X121332285Y-97988571D01*
X121332285Y-98512380D01*
X121332285Y-97988571D02*
X121379904Y-97893333D01*
X121475142Y-97845714D01*
X121618000Y-97845714D01*
X121713238Y-97893333D01*
X121760857Y-97988571D01*
X121760857Y-98512380D01*
X122141809Y-97845714D02*
X122379904Y-98512380D01*
X122618000Y-97845714D02*
X122379904Y-98512380D01*
X122284666Y-98750476D01*
X122237047Y-98798095D01*
X122141809Y-98845714D01*
X122951333Y-98464761D02*
X123046571Y-98512380D01*
X123237047Y-98512380D01*
X123332285Y-98464761D01*
X123379904Y-98369523D01*
X123379904Y-98321904D01*
X123332285Y-98226666D01*
X123237047Y-98179047D01*
X123094190Y-98179047D01*
X122998952Y-98131428D01*
X122951333Y-98036190D01*
X122951333Y-97988571D01*
X122998952Y-97893333D01*
X123094190Y-97845714D01*
X123237047Y-97845714D01*
X123332285Y-97893333D01*
X124189428Y-98464761D02*
X124094190Y-98512380D01*
X123903714Y-98512380D01*
X123808476Y-98464761D01*
X123760857Y-98369523D01*
X123760857Y-97988571D01*
X123808476Y-97893333D01*
X123903714Y-97845714D01*
X124094190Y-97845714D01*
X124189428Y-97893333D01*
X124237047Y-97988571D01*
X124237047Y-98083809D01*
X123760857Y-98179047D01*
X124808476Y-98512380D02*
X124713238Y-98464761D01*
X124665619Y-98369523D01*
X124665619Y-97512380D01*
X125046571Y-97845714D02*
X125427523Y-97845714D01*
X125189428Y-98512380D02*
X125189428Y-97655238D01*
X125237047Y-97560000D01*
X125332285Y-97512380D01*
X125427523Y-97512380D01*
X126379904Y-97845714D02*
X126760857Y-97845714D01*
X126522761Y-97512380D02*
X126522761Y-98369523D01*
X126570380Y-98464761D01*
X126665619Y-98512380D01*
X126760857Y-98512380D01*
X127094190Y-98512380D02*
X127094190Y-97512380D01*
X127522761Y-98512380D02*
X127522761Y-97988571D01*
X127475142Y-97893333D01*
X127379904Y-97845714D01*
X127237047Y-97845714D01*
X127141809Y-97893333D01*
X127094190Y-97940952D01*
X127998952Y-98512380D02*
X127998952Y-97845714D01*
X127998952Y-97512380D02*
X127951333Y-97560000D01*
X127998952Y-97607619D01*
X128046571Y-97560000D01*
X127998952Y-97512380D01*
X127998952Y-97607619D01*
X128427523Y-98464761D02*
X128522761Y-98512380D01*
X128713238Y-98512380D01*
X128808476Y-98464761D01*
X128856095Y-98369523D01*
X128856095Y-98321904D01*
X128808476Y-98226666D01*
X128713238Y-98179047D01*
X128570380Y-98179047D01*
X128475142Y-98131428D01*
X128427523Y-98036190D01*
X128427523Y-97988571D01*
X128475142Y-97893333D01*
X128570380Y-97845714D01*
X128713238Y-97845714D01*
X128808476Y-97893333D01*
X130046571Y-98512380D02*
X130046571Y-97845714D01*
X130046571Y-97940952D02*
X130094190Y-97893333D01*
X130189428Y-97845714D01*
X130332285Y-97845714D01*
X130427523Y-97893333D01*
X130475142Y-97988571D01*
X130475142Y-98512380D01*
X130475142Y-97988571D02*
X130522761Y-97893333D01*
X130618000Y-97845714D01*
X130760857Y-97845714D01*
X130856095Y-97893333D01*
X130903714Y-97988571D01*
X130903714Y-98512380D01*
X131522761Y-98512380D02*
X131427523Y-98464761D01*
X131379904Y-98417142D01*
X131332285Y-98321904D01*
X131332285Y-98036190D01*
X131379904Y-97940952D01*
X131427523Y-97893333D01*
X131522761Y-97845714D01*
X131665619Y-97845714D01*
X131760857Y-97893333D01*
X131808476Y-97940952D01*
X131856095Y-98036190D01*
X131856095Y-98321904D01*
X131808476Y-98417142D01*
X131760857Y-98464761D01*
X131665619Y-98512380D01*
X131522761Y-98512380D01*
X132284666Y-98512380D02*
X132284666Y-97845714D01*
X132284666Y-98036190D02*
X132332285Y-97940952D01*
X132379904Y-97893333D01*
X132475142Y-97845714D01*
X132570380Y-97845714D01*
X132903714Y-97845714D02*
X132903714Y-98512380D01*
X132903714Y-97940952D02*
X132951333Y-97893333D01*
X133046571Y-97845714D01*
X133189428Y-97845714D01*
X133284666Y-97893333D01*
X133332285Y-97988571D01*
X133332285Y-98512380D01*
X133808476Y-98512380D02*
X133808476Y-97845714D01*
X133808476Y-97512380D02*
X133760857Y-97560000D01*
X133808476Y-97607619D01*
X133856095Y-97560000D01*
X133808476Y-97512380D01*
X133808476Y-97607619D01*
X134284666Y-97845714D02*
X134284666Y-98512380D01*
X134284666Y-97940952D02*
X134332285Y-97893333D01*
X134427523Y-97845714D01*
X134570380Y-97845714D01*
X134665619Y-97893333D01*
X134713238Y-97988571D01*
X134713238Y-98512380D01*
X135618000Y-97845714D02*
X135618000Y-98655238D01*
X135570380Y-98750476D01*
X135522761Y-98798095D01*
X135427523Y-98845714D01*
X135284666Y-98845714D01*
X135189428Y-98798095D01*
X135618000Y-98464761D02*
X135522761Y-98512380D01*
X135332285Y-98512380D01*
X135237047Y-98464761D01*
X135189428Y-98417142D01*
X135141809Y-98321904D01*
X135141809Y-98036190D01*
X135189428Y-97940952D01*
X135237047Y-97893333D01*
X135332285Y-97845714D01*
X135522761Y-97845714D01*
X135618000Y-97893333D01*
X136094190Y-98417142D02*
X136141809Y-98464761D01*
X136094190Y-98512380D01*
X136046571Y-98464761D01*
X136094190Y-98417142D01*
X136094190Y-98512380D01*
X141629904Y-126262380D02*
X141629904Y-125262380D01*
X142058476Y-126262380D02*
X142058476Y-125738571D01*
X142010857Y-125643333D01*
X141915619Y-125595714D01*
X141772761Y-125595714D01*
X141677523Y-125643333D01*
X141629904Y-125690952D01*
X142391809Y-125595714D02*
X142772761Y-125595714D01*
X142534666Y-125262380D02*
X142534666Y-126119523D01*
X142582285Y-126214761D01*
X142677523Y-126262380D01*
X142772761Y-126262380D01*
X142963238Y-125595714D02*
X143344190Y-125595714D01*
X143106095Y-125262380D02*
X143106095Y-126119523D01*
X143153714Y-126214761D01*
X143248952Y-126262380D01*
X143344190Y-126262380D01*
X143677523Y-125595714D02*
X143677523Y-126595714D01*
X143677523Y-125643333D02*
X143772761Y-125595714D01*
X143963238Y-125595714D01*
X144058476Y-125643333D01*
X144106095Y-125690952D01*
X144153714Y-125786190D01*
X144153714Y-126071904D01*
X144106095Y-126167142D01*
X144058476Y-126214761D01*
X143963238Y-126262380D01*
X143772761Y-126262380D01*
X143677523Y-126214761D01*
X144582285Y-126167142D02*
X144629904Y-126214761D01*
X144582285Y-126262380D01*
X144534666Y-126214761D01*
X144582285Y-126167142D01*
X144582285Y-126262380D01*
X144582285Y-125643333D02*
X144629904Y-125690952D01*
X144582285Y-125738571D01*
X144534666Y-125690952D01*
X144582285Y-125643333D01*
X144582285Y-125738571D01*
X145772761Y-125214761D02*
X144915619Y-126500476D01*
X146820380Y-125214761D02*
X145963238Y-126500476D01*
X147058476Y-125595714D02*
X147248952Y-126262380D01*
X147439428Y-125786190D01*
X147629904Y-126262380D01*
X147820380Y-125595714D01*
X148106095Y-125595714D02*
X148296571Y-126262380D01*
X148487047Y-125786190D01*
X148677523Y-126262380D01*
X148868000Y-125595714D01*
X149153714Y-125595714D02*
X149344190Y-126262380D01*
X149534666Y-125786190D01*
X149725142Y-126262380D01*
X149915619Y-125595714D01*
X150296571Y-126167142D02*
X150344190Y-126214761D01*
X150296571Y-126262380D01*
X150248952Y-126214761D01*
X150296571Y-126167142D01*
X150296571Y-126262380D01*
X150772761Y-126262380D02*
X150772761Y-125262380D01*
X150868000Y-125881428D02*
X151153714Y-126262380D01*
X151153714Y-125595714D02*
X150772761Y-125976666D01*
X151582285Y-126262380D02*
X151582285Y-125595714D01*
X151582285Y-125262380D02*
X151534666Y-125310000D01*
X151582285Y-125357619D01*
X151629904Y-125310000D01*
X151582285Y-125262380D01*
X151582285Y-125357619D01*
X152058476Y-126262380D02*
X152058476Y-125595714D01*
X152058476Y-125786190D02*
X152106095Y-125690952D01*
X152153714Y-125643333D01*
X152248952Y-125595714D01*
X152344190Y-125595714D01*
X152629904Y-126214761D02*
X152725142Y-126262380D01*
X152915619Y-126262380D01*
X153010857Y-126214761D01*
X153058476Y-126119523D01*
X153058476Y-126071904D01*
X153010857Y-125976666D01*
X152915619Y-125929047D01*
X152772761Y-125929047D01*
X152677523Y-125881428D01*
X152629904Y-125786190D01*
X152629904Y-125738571D01*
X152677523Y-125643333D01*
X152772761Y-125595714D01*
X152915619Y-125595714D01*
X153010857Y-125643333D01*
X153344190Y-125595714D02*
X153725142Y-125595714D01*
X153487047Y-125262380D02*
X153487047Y-126119523D01*
X153534666Y-126214761D01*
X153629904Y-126262380D01*
X153725142Y-126262380D01*
X153963238Y-125595714D02*
X154201333Y-126262380D01*
X154439428Y-125595714D02*
X154201333Y-126262380D01*
X154106095Y-126500476D01*
X154058476Y-126548095D01*
X153963238Y-126595714D01*
X154725142Y-125595714D02*
X154915619Y-126262380D01*
X155106095Y-125786190D01*
X155296571Y-126262380D01*
X155487047Y-125595714D01*
X156296571Y-126262380D02*
X156296571Y-125738571D01*
X156248952Y-125643333D01*
X156153714Y-125595714D01*
X155963238Y-125595714D01*
X155868000Y-125643333D01*
X156296571Y-126214761D02*
X156201333Y-126262380D01*
X155963238Y-126262380D01*
X155868000Y-126214761D01*
X155820380Y-126119523D01*
X155820380Y-126024285D01*
X155868000Y-125929047D01*
X155963238Y-125881428D01*
X156201333Y-125881428D01*
X156296571Y-125833809D01*
X156915619Y-126262380D02*
X156820380Y-126214761D01*
X156772761Y-126119523D01*
X156772761Y-125262380D01*
X157677523Y-126214761D02*
X157582285Y-126262380D01*
X157391809Y-126262380D01*
X157296571Y-126214761D01*
X157248952Y-126119523D01*
X157248952Y-125738571D01*
X157296571Y-125643333D01*
X157391809Y-125595714D01*
X157582285Y-125595714D01*
X157677523Y-125643333D01*
X157725142Y-125738571D01*
X157725142Y-125833809D01*
X157248952Y-125929047D01*
X158106095Y-126214761D02*
X158201333Y-126262380D01*
X158391809Y-126262380D01*
X158487047Y-126214761D01*
X158534666Y-126119523D01*
X158534666Y-126071904D01*
X158487047Y-125976666D01*
X158391809Y-125929047D01*
X158248952Y-125929047D01*
X158153714Y-125881428D01*
X158106095Y-125786190D01*
X158106095Y-125738571D01*
X158153714Y-125643333D01*
X158248952Y-125595714D01*
X158391809Y-125595714D01*
X158487047Y-125643333D01*
X158963238Y-126167142D02*
X159010857Y-126214761D01*
X158963238Y-126262380D01*
X158915619Y-126214761D01*
X158963238Y-126167142D01*
X158963238Y-126262380D01*
X159868000Y-126214761D02*
X159772761Y-126262380D01*
X159582285Y-126262380D01*
X159487047Y-126214761D01*
X159439428Y-126167142D01*
X159391809Y-126071904D01*
X159391809Y-125786190D01*
X159439428Y-125690952D01*
X159487047Y-125643333D01*
X159582285Y-125595714D01*
X159772761Y-125595714D01*
X159868000Y-125643333D01*
X160439428Y-126262380D02*
X160344190Y-126214761D01*
X160296571Y-126167142D01*
X160248952Y-126071904D01*
X160248952Y-125786190D01*
X160296571Y-125690952D01*
X160344190Y-125643333D01*
X160439428Y-125595714D01*
X160582285Y-125595714D01*
X160677523Y-125643333D01*
X160725142Y-125690952D01*
X160772761Y-125786190D01*
X160772761Y-126071904D01*
X160725142Y-126167142D01*
X160677523Y-126214761D01*
X160582285Y-126262380D01*
X160439428Y-126262380D01*
X161201333Y-126262380D02*
X161201333Y-125595714D01*
X161201333Y-125690952D02*
X161248952Y-125643333D01*
X161344190Y-125595714D01*
X161487047Y-125595714D01*
X161582285Y-125643333D01*
X161629904Y-125738571D01*
X161629904Y-126262380D01*
X161629904Y-125738571D02*
X161677523Y-125643333D01*
X161772761Y-125595714D01*
X161915619Y-125595714D01*
X162010857Y-125643333D01*
X162058476Y-125738571D01*
X162058476Y-126262380D01*
X163248952Y-125214761D02*
X162391809Y-126500476D01*
%TO.C,D9*%
X200820380Y-74048095D02*
X199820380Y-74048095D01*
X199820380Y-73810000D01*
X199868000Y-73667142D01*
X199963238Y-73571904D01*
X200058476Y-73524285D01*
X200248952Y-73476666D01*
X200391809Y-73476666D01*
X200582285Y-73524285D01*
X200677523Y-73571904D01*
X200772761Y-73667142D01*
X200820380Y-73810000D01*
X200820380Y-74048095D01*
X200820380Y-73000476D02*
X200820380Y-72810000D01*
X200772761Y-72714761D01*
X200725142Y-72667142D01*
X200582285Y-72571904D01*
X200391809Y-72524285D01*
X200010857Y-72524285D01*
X199915619Y-72571904D01*
X199868000Y-72619523D01*
X199820380Y-72714761D01*
X199820380Y-72905238D01*
X199868000Y-73000476D01*
X199915619Y-73048095D01*
X200010857Y-73095714D01*
X200248952Y-73095714D01*
X200344190Y-73048095D01*
X200391809Y-73000476D01*
X200439428Y-72905238D01*
X200439428Y-72714761D01*
X200391809Y-72619523D01*
X200344190Y-72571904D01*
X200248952Y-72524285D01*
%TO.C,D3*%
X200820380Y-111548095D02*
X199820380Y-111548095D01*
X199820380Y-111310000D01*
X199868000Y-111167142D01*
X199963238Y-111071904D01*
X200058476Y-111024285D01*
X200248952Y-110976666D01*
X200391809Y-110976666D01*
X200582285Y-111024285D01*
X200677523Y-111071904D01*
X200772761Y-111167142D01*
X200820380Y-111310000D01*
X200820380Y-111548095D01*
X199820380Y-110643333D02*
X199820380Y-110024285D01*
X200201333Y-110357619D01*
X200201333Y-110214761D01*
X200248952Y-110119523D01*
X200296571Y-110071904D01*
X200391809Y-110024285D01*
X200629904Y-110024285D01*
X200725142Y-110071904D01*
X200772761Y-110119523D01*
X200820380Y-110214761D01*
X200820380Y-110500476D01*
X200772761Y-110595714D01*
X200725142Y-110643333D01*
%TO.C,DR1*%
X144820380Y-92548095D02*
X143820380Y-92548095D01*
X143820380Y-92310000D01*
X143868000Y-92167142D01*
X143963238Y-92071904D01*
X144058476Y-92024285D01*
X144248952Y-91976666D01*
X144391809Y-91976666D01*
X144582285Y-92024285D01*
X144677523Y-92071904D01*
X144772761Y-92167142D01*
X144820380Y-92310000D01*
X144820380Y-92548095D01*
X144820380Y-90976666D02*
X144344190Y-91310000D01*
X144820380Y-91548095D02*
X143820380Y-91548095D01*
X143820380Y-91167142D01*
X143868000Y-91071904D01*
X143915619Y-91024285D01*
X144010857Y-90976666D01*
X144153714Y-90976666D01*
X144248952Y-91024285D01*
X144296571Y-91071904D01*
X144344190Y-91167142D01*
X144344190Y-91548095D01*
X144820380Y-90024285D02*
X144820380Y-90595714D01*
X144820380Y-90310000D02*
X143820380Y-90310000D01*
X143963238Y-90405238D01*
X144058476Y-90500476D01*
X144106095Y-90595714D01*
%TO.C,D1*%
X162820380Y-111548095D02*
X161820380Y-111548095D01*
X161820380Y-111310000D01*
X161868000Y-111167142D01*
X161963238Y-111071904D01*
X162058476Y-111024285D01*
X162248952Y-110976666D01*
X162391809Y-110976666D01*
X162582285Y-111024285D01*
X162677523Y-111071904D01*
X162772761Y-111167142D01*
X162820380Y-111310000D01*
X162820380Y-111548095D01*
X162820380Y-110024285D02*
X162820380Y-110595714D01*
X162820380Y-110310000D02*
X161820380Y-110310000D01*
X161963238Y-110405238D01*
X162058476Y-110500476D01*
X162106095Y-110595714D01*
%TO.C,D5*%
X181820380Y-92048095D02*
X180820380Y-92048095D01*
X180820380Y-91810000D01*
X180868000Y-91667142D01*
X180963238Y-91571904D01*
X181058476Y-91524285D01*
X181248952Y-91476666D01*
X181391809Y-91476666D01*
X181582285Y-91524285D01*
X181677523Y-91571904D01*
X181772761Y-91667142D01*
X181820380Y-91810000D01*
X181820380Y-92048095D01*
X180820380Y-90571904D02*
X180820380Y-91048095D01*
X181296571Y-91095714D01*
X181248952Y-91048095D01*
X181201333Y-90952857D01*
X181201333Y-90714761D01*
X181248952Y-90619523D01*
X181296571Y-90571904D01*
X181391809Y-90524285D01*
X181629904Y-90524285D01*
X181725142Y-90571904D01*
X181772761Y-90619523D01*
X181820380Y-90714761D01*
X181820380Y-90952857D01*
X181772761Y-91048095D01*
X181725142Y-91095714D01*
%TO.C,UwU*%
X202666666Y-119252380D02*
X202666666Y-120061904D01*
X202714285Y-120157142D01*
X202761904Y-120204761D01*
X202857142Y-120252380D01*
X203047619Y-120252380D01*
X203142857Y-120204761D01*
X203190476Y-120157142D01*
X203238095Y-120061904D01*
X203238095Y-119252380D01*
X203619047Y-119585714D02*
X203809523Y-120252380D01*
X204000000Y-119776190D01*
X204190476Y-120252380D01*
X204380952Y-119585714D01*
X204761904Y-119252380D02*
X204761904Y-120061904D01*
X204809523Y-120157142D01*
X204857142Y-120204761D01*
X204952380Y-120252380D01*
X205142857Y-120252380D01*
X205238095Y-120204761D01*
X205285714Y-120157142D01*
X205333333Y-120061904D01*
X205333333Y-119252380D01*
%TO.C,D8*%
X181570380Y-73798095D02*
X180570380Y-73798095D01*
X180570380Y-73560000D01*
X180618000Y-73417142D01*
X180713238Y-73321904D01*
X180808476Y-73274285D01*
X180998952Y-73226666D01*
X181141809Y-73226666D01*
X181332285Y-73274285D01*
X181427523Y-73321904D01*
X181522761Y-73417142D01*
X181570380Y-73560000D01*
X181570380Y-73798095D01*
X180998952Y-72655238D02*
X180951333Y-72750476D01*
X180903714Y-72798095D01*
X180808476Y-72845714D01*
X180760857Y-72845714D01*
X180665619Y-72798095D01*
X180618000Y-72750476D01*
X180570380Y-72655238D01*
X180570380Y-72464761D01*
X180618000Y-72369523D01*
X180665619Y-72321904D01*
X180760857Y-72274285D01*
X180808476Y-72274285D01*
X180903714Y-72321904D01*
X180951333Y-72369523D01*
X180998952Y-72464761D01*
X180998952Y-72655238D01*
X181046571Y-72750476D01*
X181094190Y-72798095D01*
X181189428Y-72845714D01*
X181379904Y-72845714D01*
X181475142Y-72798095D01*
X181522761Y-72750476D01*
X181570380Y-72655238D01*
X181570380Y-72464761D01*
X181522761Y-72369523D01*
X181475142Y-72321904D01*
X181379904Y-72274285D01*
X181189428Y-72274285D01*
X181094190Y-72321904D01*
X181046571Y-72369523D01*
X180998952Y-72464761D01*
%TO.C,D4*%
X162820380Y-92048095D02*
X161820380Y-92048095D01*
X161820380Y-91810000D01*
X161868000Y-91667142D01*
X161963238Y-91571904D01*
X162058476Y-91524285D01*
X162248952Y-91476666D01*
X162391809Y-91476666D01*
X162582285Y-91524285D01*
X162677523Y-91571904D01*
X162772761Y-91667142D01*
X162820380Y-91810000D01*
X162820380Y-92048095D01*
X162153714Y-90619523D02*
X162820380Y-90619523D01*
X161772761Y-90857619D02*
X162487047Y-91095714D01*
X162487047Y-90476666D01*
%TO.C,SWM1*%
X133107238Y-120840761D02*
X133250095Y-120888380D01*
X133488190Y-120888380D01*
X133583428Y-120840761D01*
X133631047Y-120793142D01*
X133678666Y-120697904D01*
X133678666Y-120602666D01*
X133631047Y-120507428D01*
X133583428Y-120459809D01*
X133488190Y-120412190D01*
X133297714Y-120364571D01*
X133202476Y-120316952D01*
X133154857Y-120269333D01*
X133107238Y-120174095D01*
X133107238Y-120078857D01*
X133154857Y-119983619D01*
X133202476Y-119936000D01*
X133297714Y-119888380D01*
X133535809Y-119888380D01*
X133678666Y-119936000D01*
X134012000Y-119888380D02*
X134250095Y-120888380D01*
X134440571Y-120174095D01*
X134631047Y-120888380D01*
X134869142Y-119888380D01*
X135250095Y-120888380D02*
X135250095Y-119888380D01*
X135583428Y-120602666D01*
X135916761Y-119888380D01*
X135916761Y-120888380D01*
X136916761Y-120888380D02*
X136345333Y-120888380D01*
X136631047Y-120888380D02*
X136631047Y-119888380D01*
X136535809Y-120031238D01*
X136440571Y-120126476D01*
X136345333Y-120174095D01*
%TO.C,SW5*%
X171778666Y-101790761D02*
X171921523Y-101838380D01*
X172159619Y-101838380D01*
X172254857Y-101790761D01*
X172302476Y-101743142D01*
X172350095Y-101647904D01*
X172350095Y-101552666D01*
X172302476Y-101457428D01*
X172254857Y-101409809D01*
X172159619Y-101362190D01*
X171969142Y-101314571D01*
X171873904Y-101266952D01*
X171826285Y-101219333D01*
X171778666Y-101124095D01*
X171778666Y-101028857D01*
X171826285Y-100933619D01*
X171873904Y-100886000D01*
X171969142Y-100838380D01*
X172207238Y-100838380D01*
X172350095Y-100886000D01*
X172683428Y-100838380D02*
X172921523Y-101838380D01*
X173112000Y-101124095D01*
X173302476Y-101838380D01*
X173540571Y-100838380D01*
X174397714Y-100838380D02*
X173921523Y-100838380D01*
X173873904Y-101314571D01*
X173921523Y-101266952D01*
X174016761Y-101219333D01*
X174254857Y-101219333D01*
X174350095Y-101266952D01*
X174397714Y-101314571D01*
X174445333Y-101409809D01*
X174445333Y-101647904D01*
X174397714Y-101743142D01*
X174350095Y-101790761D01*
X174254857Y-101838380D01*
X174016761Y-101838380D01*
X173921523Y-101790761D01*
X173873904Y-101743142D01*
%TO.C,PCB1*%
X128982523Y-53075980D02*
X127712523Y-53075980D01*
X127712523Y-52592171D01*
X127773000Y-52471219D01*
X127833476Y-52410742D01*
X127954428Y-52350266D01*
X128135857Y-52350266D01*
X128256809Y-52410742D01*
X128317285Y-52471219D01*
X128377761Y-52592171D01*
X128377761Y-53075980D01*
X128861571Y-51080266D02*
X128922047Y-51140742D01*
X128982523Y-51322171D01*
X128982523Y-51443123D01*
X128922047Y-51624552D01*
X128801095Y-51745504D01*
X128680142Y-51805980D01*
X128438238Y-51866457D01*
X128256809Y-51866457D01*
X128014904Y-51805980D01*
X127893952Y-51745504D01*
X127773000Y-51624552D01*
X127712523Y-51443123D01*
X127712523Y-51322171D01*
X127773000Y-51140742D01*
X127833476Y-51080266D01*
X128317285Y-50112647D02*
X128377761Y-49931219D01*
X128438238Y-49870742D01*
X128559190Y-49810266D01*
X128740619Y-49810266D01*
X128861571Y-49870742D01*
X128922047Y-49931219D01*
X128982523Y-50052171D01*
X128982523Y-50535980D01*
X127712523Y-50535980D01*
X127712523Y-50112647D01*
X127773000Y-49991695D01*
X127833476Y-49931219D01*
X127954428Y-49870742D01*
X128075380Y-49870742D01*
X128196333Y-49931219D01*
X128256809Y-49991695D01*
X128317285Y-50112647D01*
X128317285Y-50535980D01*
X128982523Y-48600742D02*
X128982523Y-49326457D01*
X128982523Y-48963600D02*
X127712523Y-48963600D01*
X127893952Y-49084552D01*
X128014904Y-49205504D01*
X128075380Y-49326457D01*
%TO.C,SW7*%
X152728666Y-82740761D02*
X152871523Y-82788380D01*
X153109619Y-82788380D01*
X153204857Y-82740761D01*
X153252476Y-82693142D01*
X153300095Y-82597904D01*
X153300095Y-82502666D01*
X153252476Y-82407428D01*
X153204857Y-82359809D01*
X153109619Y-82312190D01*
X152919142Y-82264571D01*
X152823904Y-82216952D01*
X152776285Y-82169333D01*
X152728666Y-82074095D01*
X152728666Y-81978857D01*
X152776285Y-81883619D01*
X152823904Y-81836000D01*
X152919142Y-81788380D01*
X153157238Y-81788380D01*
X153300095Y-81836000D01*
X153633428Y-81788380D02*
X153871523Y-82788380D01*
X154062000Y-82074095D01*
X154252476Y-82788380D01*
X154490571Y-81788380D01*
X154776285Y-81788380D02*
X155442952Y-81788380D01*
X155014380Y-82788380D01*
%TO.C,SW8*%
X171778666Y-82740761D02*
X171921523Y-82788380D01*
X172159619Y-82788380D01*
X172254857Y-82740761D01*
X172302476Y-82693142D01*
X172350095Y-82597904D01*
X172350095Y-82502666D01*
X172302476Y-82407428D01*
X172254857Y-82359809D01*
X172159619Y-82312190D01*
X171969142Y-82264571D01*
X171873904Y-82216952D01*
X171826285Y-82169333D01*
X171778666Y-82074095D01*
X171778666Y-81978857D01*
X171826285Y-81883619D01*
X171873904Y-81836000D01*
X171969142Y-81788380D01*
X172207238Y-81788380D01*
X172350095Y-81836000D01*
X172683428Y-81788380D02*
X172921523Y-82788380D01*
X173112000Y-82074095D01*
X173302476Y-82788380D01*
X173540571Y-81788380D01*
X174064380Y-82216952D02*
X173969142Y-82169333D01*
X173921523Y-82121714D01*
X173873904Y-82026476D01*
X173873904Y-81978857D01*
X173921523Y-81883619D01*
X173969142Y-81836000D01*
X174064380Y-81788380D01*
X174254857Y-81788380D01*
X174350095Y-81836000D01*
X174397714Y-81883619D01*
X174445333Y-81978857D01*
X174445333Y-82026476D01*
X174397714Y-82121714D01*
X174350095Y-82169333D01*
X174254857Y-82216952D01*
X174064380Y-82216952D01*
X173969142Y-82264571D01*
X173921523Y-82312190D01*
X173873904Y-82407428D01*
X173873904Y-82597904D01*
X173921523Y-82693142D01*
X173969142Y-82740761D01*
X174064380Y-82788380D01*
X174254857Y-82788380D01*
X174350095Y-82740761D01*
X174397714Y-82693142D01*
X174445333Y-82597904D01*
X174445333Y-82407428D01*
X174397714Y-82312190D01*
X174350095Y-82264571D01*
X174254857Y-82216952D01*
%TO.C,SW3*%
X190828666Y-120840761D02*
X190971523Y-120888380D01*
X191209619Y-120888380D01*
X191304857Y-120840761D01*
X191352476Y-120793142D01*
X191400095Y-120697904D01*
X191400095Y-120602666D01*
X191352476Y-120507428D01*
X191304857Y-120459809D01*
X191209619Y-120412190D01*
X191019142Y-120364571D01*
X190923904Y-120316952D01*
X190876285Y-120269333D01*
X190828666Y-120174095D01*
X190828666Y-120078857D01*
X190876285Y-119983619D01*
X190923904Y-119936000D01*
X191019142Y-119888380D01*
X191257238Y-119888380D01*
X191400095Y-119936000D01*
X191733428Y-119888380D02*
X191971523Y-120888380D01*
X192162000Y-120174095D01*
X192352476Y-120888380D01*
X192590571Y-119888380D01*
X192876285Y-119888380D02*
X193495333Y-119888380D01*
X193162000Y-120269333D01*
X193304857Y-120269333D01*
X193400095Y-120316952D01*
X193447714Y-120364571D01*
X193495333Y-120459809D01*
X193495333Y-120697904D01*
X193447714Y-120793142D01*
X193400095Y-120840761D01*
X193304857Y-120888380D01*
X193019142Y-120888380D01*
X192923904Y-120840761D01*
X192876285Y-120793142D01*
%TO.C,Daddy*%
X112000000Y-120252380D02*
X112000000Y-119252380D01*
X112238095Y-119252380D01*
X112380952Y-119300000D01*
X112476190Y-119395238D01*
X112523809Y-119490476D01*
X112571428Y-119680952D01*
X112571428Y-119823809D01*
X112523809Y-120014285D01*
X112476190Y-120109523D01*
X112380952Y-120204761D01*
X112238095Y-120252380D01*
X112000000Y-120252380D01*
X113428571Y-120252380D02*
X113428571Y-119728571D01*
X113380952Y-119633333D01*
X113285714Y-119585714D01*
X113095238Y-119585714D01*
X113000000Y-119633333D01*
X113428571Y-120204761D02*
X113333333Y-120252380D01*
X113095238Y-120252380D01*
X113000000Y-120204761D01*
X112952380Y-120109523D01*
X112952380Y-120014285D01*
X113000000Y-119919047D01*
X113095238Y-119871428D01*
X113333333Y-119871428D01*
X113428571Y-119823809D01*
X114333333Y-120252380D02*
X114333333Y-119252380D01*
X114333333Y-120204761D02*
X114238095Y-120252380D01*
X114047619Y-120252380D01*
X113952380Y-120204761D01*
X113904761Y-120157142D01*
X113857142Y-120061904D01*
X113857142Y-119776190D01*
X113904761Y-119680952D01*
X113952380Y-119633333D01*
X114047619Y-119585714D01*
X114238095Y-119585714D01*
X114333333Y-119633333D01*
X115238095Y-120252380D02*
X115238095Y-119252380D01*
X115238095Y-120204761D02*
X115142857Y-120252380D01*
X114952380Y-120252380D01*
X114857142Y-120204761D01*
X114809523Y-120157142D01*
X114761904Y-120061904D01*
X114761904Y-119776190D01*
X114809523Y-119680952D01*
X114857142Y-119633333D01*
X114952380Y-119585714D01*
X115142857Y-119585714D01*
X115238095Y-119633333D01*
X115619047Y-119585714D02*
X115857142Y-120252380D01*
X116095238Y-119585714D02*
X115857142Y-120252380D01*
X115761904Y-120490476D01*
X115714285Y-120538095D01*
X115619047Y-120585714D01*
%TO.C,me*%
X203142857Y-56252380D02*
X203142857Y-55585714D01*
X203142857Y-55680952D02*
X203190476Y-55633333D01*
X203285714Y-55585714D01*
X203428571Y-55585714D01*
X203523809Y-55633333D01*
X203571428Y-55728571D01*
X203571428Y-56252380D01*
X203571428Y-55728571D02*
X203619047Y-55633333D01*
X203714285Y-55585714D01*
X203857142Y-55585714D01*
X203952380Y-55633333D01*
X204000000Y-55728571D01*
X204000000Y-56252380D01*
X204857142Y-56204761D02*
X204761904Y-56252380D01*
X204571428Y-56252380D01*
X204476190Y-56204761D01*
X204428571Y-56109523D01*
X204428571Y-55728571D01*
X204476190Y-55633333D01*
X204571428Y-55585714D01*
X204761904Y-55585714D01*
X204857142Y-55633333D01*
X204904761Y-55728571D01*
X204904761Y-55823809D01*
X204428571Y-55919047D01*
%TO.C,SW4*%
X152728666Y-101790761D02*
X152871523Y-101838380D01*
X153109619Y-101838380D01*
X153204857Y-101790761D01*
X153252476Y-101743142D01*
X153300095Y-101647904D01*
X153300095Y-101552666D01*
X153252476Y-101457428D01*
X153204857Y-101409809D01*
X153109619Y-101362190D01*
X152919142Y-101314571D01*
X152823904Y-101266952D01*
X152776285Y-101219333D01*
X152728666Y-101124095D01*
X152728666Y-101028857D01*
X152776285Y-100933619D01*
X152823904Y-100886000D01*
X152919142Y-100838380D01*
X153157238Y-100838380D01*
X153300095Y-100886000D01*
X153633428Y-100838380D02*
X153871523Y-101838380D01*
X154062000Y-101124095D01*
X154252476Y-101838380D01*
X154490571Y-100838380D01*
X155300095Y-101171714D02*
X155300095Y-101838380D01*
X155062000Y-100790761D02*
X154823904Y-101505047D01*
X155442952Y-101505047D01*
%TO.C,D6*%
X201070380Y-91798095D02*
X200070380Y-91798095D01*
X200070380Y-91560000D01*
X200118000Y-91417142D01*
X200213238Y-91321904D01*
X200308476Y-91274285D01*
X200498952Y-91226666D01*
X200641809Y-91226666D01*
X200832285Y-91274285D01*
X200927523Y-91321904D01*
X201022761Y-91417142D01*
X201070380Y-91560000D01*
X201070380Y-91798095D01*
X200070380Y-90369523D02*
X200070380Y-90560000D01*
X200118000Y-90655238D01*
X200165619Y-90702857D01*
X200308476Y-90798095D01*
X200498952Y-90845714D01*
X200879904Y-90845714D01*
X200975142Y-90798095D01*
X201022761Y-90750476D01*
X201070380Y-90655238D01*
X201070380Y-90464761D01*
X201022761Y-90369523D01*
X200975142Y-90321904D01*
X200879904Y-90274285D01*
X200641809Y-90274285D01*
X200546571Y-90321904D01*
X200498952Y-90369523D01*
X200451333Y-90464761D01*
X200451333Y-90655238D01*
X200498952Y-90750476D01*
X200546571Y-90798095D01*
X200641809Y-90845714D01*
%TO.C,SWR1*%
X122008666Y-77786761D02*
X122151523Y-77834380D01*
X122389619Y-77834380D01*
X122484857Y-77786761D01*
X122532476Y-77739142D01*
X122580095Y-77643904D01*
X122580095Y-77548666D01*
X122532476Y-77453428D01*
X122484857Y-77405809D01*
X122389619Y-77358190D01*
X122199142Y-77310571D01*
X122103904Y-77262952D01*
X122056285Y-77215333D01*
X122008666Y-77120095D01*
X122008666Y-77024857D01*
X122056285Y-76929619D01*
X122103904Y-76882000D01*
X122199142Y-76834380D01*
X122437238Y-76834380D01*
X122580095Y-76882000D01*
X122913428Y-76834380D02*
X123151523Y-77834380D01*
X123342000Y-77120095D01*
X123532476Y-77834380D01*
X123770571Y-76834380D01*
X124722952Y-77834380D02*
X124389619Y-77358190D01*
X124151523Y-77834380D02*
X124151523Y-76834380D01*
X124532476Y-76834380D01*
X124627714Y-76882000D01*
X124675333Y-76929619D01*
X124722952Y-77024857D01*
X124722952Y-77167714D01*
X124675333Y-77262952D01*
X124627714Y-77310571D01*
X124532476Y-77358190D01*
X124151523Y-77358190D01*
X125675333Y-77834380D02*
X125103904Y-77834380D01*
X125389619Y-77834380D02*
X125389619Y-76834380D01*
X125294380Y-76977238D01*
X125199142Y-77072476D01*
X125103904Y-77120095D01*
%TO.C,SW2*%
X171778666Y-120840761D02*
X171921523Y-120888380D01*
X172159619Y-120888380D01*
X172254857Y-120840761D01*
X172302476Y-120793142D01*
X172350095Y-120697904D01*
X172350095Y-120602666D01*
X172302476Y-120507428D01*
X172254857Y-120459809D01*
X172159619Y-120412190D01*
X171969142Y-120364571D01*
X171873904Y-120316952D01*
X171826285Y-120269333D01*
X171778666Y-120174095D01*
X171778666Y-120078857D01*
X171826285Y-119983619D01*
X171873904Y-119936000D01*
X171969142Y-119888380D01*
X172207238Y-119888380D01*
X172350095Y-119936000D01*
X172683428Y-119888380D02*
X172921523Y-120888380D01*
X173112000Y-120174095D01*
X173302476Y-120888380D01*
X173540571Y-119888380D01*
X173873904Y-119983619D02*
X173921523Y-119936000D01*
X174016761Y-119888380D01*
X174254857Y-119888380D01*
X174350095Y-119936000D01*
X174397714Y-119983619D01*
X174445333Y-120078857D01*
X174445333Y-120174095D01*
X174397714Y-120316952D01*
X173826285Y-120888380D01*
X174445333Y-120888380D01*
%TO.C,mount*%
X111928571Y-56252380D02*
X111928571Y-55585714D01*
X111928571Y-55680952D02*
X111976190Y-55633333D01*
X112071428Y-55585714D01*
X112214285Y-55585714D01*
X112309523Y-55633333D01*
X112357142Y-55728571D01*
X112357142Y-56252380D01*
X112357142Y-55728571D02*
X112404761Y-55633333D01*
X112500000Y-55585714D01*
X112642857Y-55585714D01*
X112738095Y-55633333D01*
X112785714Y-55728571D01*
X112785714Y-56252380D01*
X113404761Y-56252380D02*
X113309523Y-56204761D01*
X113261904Y-56157142D01*
X113214285Y-56061904D01*
X113214285Y-55776190D01*
X113261904Y-55680952D01*
X113309523Y-55633333D01*
X113404761Y-55585714D01*
X113547619Y-55585714D01*
X113642857Y-55633333D01*
X113690476Y-55680952D01*
X113738095Y-55776190D01*
X113738095Y-56061904D01*
X113690476Y-56157142D01*
X113642857Y-56204761D01*
X113547619Y-56252380D01*
X113404761Y-56252380D01*
X114595238Y-55585714D02*
X114595238Y-56252380D01*
X114166666Y-55585714D02*
X114166666Y-56109523D01*
X114214285Y-56204761D01*
X114309523Y-56252380D01*
X114452380Y-56252380D01*
X114547619Y-56204761D01*
X114595238Y-56157142D01*
X115071428Y-55585714D02*
X115071428Y-56252380D01*
X115071428Y-55680952D02*
X115119047Y-55633333D01*
X115214285Y-55585714D01*
X115357142Y-55585714D01*
X115452380Y-55633333D01*
X115500000Y-55728571D01*
X115500000Y-56252380D01*
X115833333Y-55585714D02*
X116214285Y-55585714D01*
X115976190Y-55252380D02*
X115976190Y-56109523D01*
X116023809Y-56204761D01*
X116119047Y-56252380D01*
X116214285Y-56252380D01*
%TO.C,SW9*%
X190828666Y-82740761D02*
X190971523Y-82788380D01*
X191209619Y-82788380D01*
X191304857Y-82740761D01*
X191352476Y-82693142D01*
X191400095Y-82597904D01*
X191400095Y-82502666D01*
X191352476Y-82407428D01*
X191304857Y-82359809D01*
X191209619Y-82312190D01*
X191019142Y-82264571D01*
X190923904Y-82216952D01*
X190876285Y-82169333D01*
X190828666Y-82074095D01*
X190828666Y-81978857D01*
X190876285Y-81883619D01*
X190923904Y-81836000D01*
X191019142Y-81788380D01*
X191257238Y-81788380D01*
X191400095Y-81836000D01*
X191733428Y-81788380D02*
X191971523Y-82788380D01*
X192162000Y-82074095D01*
X192352476Y-82788380D01*
X192590571Y-81788380D01*
X193019142Y-82788380D02*
X193209619Y-82788380D01*
X193304857Y-82740761D01*
X193352476Y-82693142D01*
X193447714Y-82550285D01*
X193495333Y-82359809D01*
X193495333Y-81978857D01*
X193447714Y-81883619D01*
X193400095Y-81836000D01*
X193304857Y-81788380D01*
X193114380Y-81788380D01*
X193019142Y-81836000D01*
X192971523Y-81883619D01*
X192923904Y-81978857D01*
X192923904Y-82216952D01*
X192971523Y-82312190D01*
X193019142Y-82359809D01*
X193114380Y-82407428D01*
X193304857Y-82407428D01*
X193400095Y-82359809D01*
X193447714Y-82312190D01*
X193495333Y-82216952D01*
%TO.C,D2*%
X181820380Y-111548095D02*
X180820380Y-111548095D01*
X180820380Y-111310000D01*
X180868000Y-111167142D01*
X180963238Y-111071904D01*
X181058476Y-111024285D01*
X181248952Y-110976666D01*
X181391809Y-110976666D01*
X181582285Y-111024285D01*
X181677523Y-111071904D01*
X181772761Y-111167142D01*
X181820380Y-111310000D01*
X181820380Y-111548095D01*
X180915619Y-110595714D02*
X180868000Y-110548095D01*
X180820380Y-110452857D01*
X180820380Y-110214761D01*
X180868000Y-110119523D01*
X180915619Y-110071904D01*
X181010857Y-110024285D01*
X181106095Y-110024285D01*
X181248952Y-110071904D01*
X181820380Y-110643333D01*
X181820380Y-110024285D01*
%TO.C,SW6*%
X190828666Y-101790761D02*
X190971523Y-101838380D01*
X191209619Y-101838380D01*
X191304857Y-101790761D01*
X191352476Y-101743142D01*
X191400095Y-101647904D01*
X191400095Y-101552666D01*
X191352476Y-101457428D01*
X191304857Y-101409809D01*
X191209619Y-101362190D01*
X191019142Y-101314571D01*
X190923904Y-101266952D01*
X190876285Y-101219333D01*
X190828666Y-101124095D01*
X190828666Y-101028857D01*
X190876285Y-100933619D01*
X190923904Y-100886000D01*
X191019142Y-100838380D01*
X191257238Y-100838380D01*
X191400095Y-100886000D01*
X191733428Y-100838380D02*
X191971523Y-101838380D01*
X192162000Y-101124095D01*
X192352476Y-101838380D01*
X192590571Y-100838380D01*
X193400095Y-100838380D02*
X193209619Y-100838380D01*
X193114380Y-100886000D01*
X193066761Y-100933619D01*
X192971523Y-101076476D01*
X192923904Y-101266952D01*
X192923904Y-101647904D01*
X192971523Y-101743142D01*
X193019142Y-101790761D01*
X193114380Y-101838380D01*
X193304857Y-101838380D01*
X193400095Y-101790761D01*
X193447714Y-101743142D01*
X193495333Y-101647904D01*
X193495333Y-101409809D01*
X193447714Y-101314571D01*
X193400095Y-101266952D01*
X193304857Y-101219333D01*
X193114380Y-101219333D01*
X193019142Y-101266952D01*
X192971523Y-101314571D01*
X192923904Y-101409809D01*
%TO.C,SW1*%
X152728666Y-120840761D02*
X152871523Y-120888380D01*
X153109619Y-120888380D01*
X153204857Y-120840761D01*
X153252476Y-120793142D01*
X153300095Y-120697904D01*
X153300095Y-120602666D01*
X153252476Y-120507428D01*
X153204857Y-120459809D01*
X153109619Y-120412190D01*
X152919142Y-120364571D01*
X152823904Y-120316952D01*
X152776285Y-120269333D01*
X152728666Y-120174095D01*
X152728666Y-120078857D01*
X152776285Y-119983619D01*
X152823904Y-119936000D01*
X152919142Y-119888380D01*
X153157238Y-119888380D01*
X153300095Y-119936000D01*
X153633428Y-119888380D02*
X153871523Y-120888380D01*
X154062000Y-120174095D01*
X154252476Y-120888380D01*
X154490571Y-119888380D01*
X155395333Y-120888380D02*
X154823904Y-120888380D01*
X155109619Y-120888380D02*
X155109619Y-119888380D01*
X155014380Y-120031238D01*
X154919142Y-120126476D01*
X154823904Y-120174095D01*
%TO.C,DM1*%
X143820380Y-112369523D02*
X142820380Y-112369523D01*
X142820380Y-112131428D01*
X142868000Y-111988571D01*
X142963238Y-111893333D01*
X143058476Y-111845714D01*
X143248952Y-111798095D01*
X143391809Y-111798095D01*
X143582285Y-111845714D01*
X143677523Y-111893333D01*
X143772761Y-111988571D01*
X143820380Y-112131428D01*
X143820380Y-112369523D01*
X143820380Y-111369523D02*
X142820380Y-111369523D01*
X143534666Y-111036190D01*
X142820380Y-110702857D01*
X143820380Y-110702857D01*
X143820380Y-109702857D02*
X143820380Y-110274285D01*
X143820380Y-109988571D02*
X142820380Y-109988571D01*
X142963238Y-110083809D01*
X143058476Y-110179047D01*
X143106095Y-110274285D01*
%TO.C,D7*%
X162570380Y-74048095D02*
X161570380Y-74048095D01*
X161570380Y-73810000D01*
X161618000Y-73667142D01*
X161713238Y-73571904D01*
X161808476Y-73524285D01*
X161998952Y-73476666D01*
X162141809Y-73476666D01*
X162332285Y-73524285D01*
X162427523Y-73571904D01*
X162522761Y-73667142D01*
X162570380Y-73810000D01*
X162570380Y-74048095D01*
X161570380Y-73143333D02*
X161570380Y-72476666D01*
X162570380Y-72905238D01*
D11*
%TO.C,D9*%
X200814000Y-71632000D02*
X202814000Y-71632000D01*
X202814000Y-71632000D02*
X202814000Y-67732000D01*
X200814000Y-71632000D02*
X200814000Y-67732000D01*
%TO.C,D3*%
X200814000Y-109224000D02*
X202814000Y-109224000D01*
X200814000Y-109224000D02*
X200814000Y-105324000D01*
X202814000Y-109224000D02*
X202814000Y-105324000D01*
%TO.C,DR1*%
X145664000Y-89412000D02*
X145664000Y-85512000D01*
X143664000Y-89412000D02*
X143664000Y-85512000D01*
X143664000Y-89412000D02*
X145664000Y-89412000D01*
%TO.C,D1*%
X162714000Y-109224000D02*
X164714000Y-109224000D01*
X162714000Y-109224000D02*
X162714000Y-105324000D01*
X164714000Y-109224000D02*
X164714000Y-105324000D01*
%TO.C,D5*%
X183510000Y-89412000D02*
X183510000Y-85512000D01*
X181510000Y-89412000D02*
X181510000Y-85512000D01*
X181510000Y-89412000D02*
X183510000Y-89412000D01*
%TO.C,D8*%
X181764000Y-71632000D02*
X181764000Y-67732000D01*
X183764000Y-71632000D02*
X183764000Y-67732000D01*
X181764000Y-71632000D02*
X183764000Y-71632000D01*
%TO.C,D4*%
X162714000Y-89412000D02*
X162714000Y-85512000D01*
X164714000Y-89412000D02*
X164714000Y-85512000D01*
X162714000Y-89412000D02*
X164714000Y-89412000D01*
%TO.C,SWM1*%
X128027000Y-105577000D02*
X141997000Y-105577000D01*
X141997000Y-105577000D02*
X141997000Y-119547000D01*
X141997000Y-119547000D02*
X128027000Y-119547000D01*
X128027000Y-119547000D02*
X128027000Y-105577000D01*
%TO.C,SW5*%
X180097000Y-86527000D02*
X180097000Y-100497000D01*
X166127000Y-86527000D02*
X180097000Y-86527000D01*
X166127000Y-100497000D02*
X166127000Y-86527000D01*
X180097000Y-100497000D02*
X166127000Y-100497000D01*
%TO.C,SW7*%
X147077000Y-67477000D02*
X161047000Y-67477000D01*
X161047000Y-67477000D02*
X161047000Y-81447000D01*
X147077000Y-81447000D02*
X147077000Y-67477000D01*
X161047000Y-81447000D02*
X147077000Y-81447000D01*
%TO.C,SW8*%
X166127000Y-81447000D02*
X166127000Y-67477000D01*
X180097000Y-67477000D02*
X180097000Y-81447000D01*
X166127000Y-67477000D02*
X180097000Y-67477000D01*
X180097000Y-81447000D02*
X166127000Y-81447000D01*
%TO.C,SW3*%
X199147000Y-105577000D02*
X199147000Y-119547000D01*
X185177000Y-105577000D02*
X199147000Y-105577000D01*
X185177000Y-119547000D02*
X185177000Y-105577000D01*
X199147000Y-119547000D02*
X185177000Y-119547000D01*
%TO.C,SW4*%
X147077000Y-100497000D02*
X147077000Y-86527000D01*
X161047000Y-100497000D02*
X147077000Y-100497000D01*
X147077000Y-86527000D02*
X161047000Y-86527000D01*
X161047000Y-86527000D02*
X161047000Y-100497000D01*
%TO.C,D6*%
X200814000Y-89412000D02*
X200814000Y-85512000D01*
X202814000Y-89412000D02*
X202814000Y-85512000D01*
X200814000Y-89412000D02*
X202814000Y-89412000D01*
%TO.C,SWR1*%
X126542000Y-78682000D02*
X122442000Y-78682000D01*
X134642000Y-90482000D02*
X130542000Y-90482000D01*
X126542000Y-90482000D02*
X122442000Y-90482000D01*
X121342000Y-80482000D02*
X121042000Y-80782000D01*
X122442000Y-78682000D02*
X122442000Y-90482000D01*
X128042000Y-84582000D02*
X129042000Y-84582000D01*
X134642000Y-78682000D02*
X134642000Y-81082000D01*
X128542000Y-84082000D02*
X128542000Y-85082000D01*
X121042000Y-80782000D02*
X120742000Y-80482000D01*
X120742000Y-80482000D02*
X121342000Y-80482000D01*
X134642000Y-88082000D02*
X134642000Y-90482000D01*
X134642000Y-83282000D02*
X134642000Y-85882000D01*
X130542000Y-78682000D02*
X134642000Y-78682000D01*
X131542000Y-84582000D02*
G75*
G03*
X131542000Y-84582000I-3000000J0D01*
G01*
%TO.C,SW2*%
X180097000Y-105577000D02*
X180097000Y-119547000D01*
X180097000Y-119547000D02*
X166127000Y-119547000D01*
X166127000Y-105577000D02*
X180097000Y-105577000D01*
X166127000Y-119547000D02*
X166127000Y-105577000D01*
%TO.C,SW9*%
X185177000Y-81447000D02*
X185177000Y-67477000D01*
X185177000Y-67477000D02*
X199147000Y-67477000D01*
X199147000Y-81447000D02*
X185177000Y-81447000D01*
X199147000Y-67477000D02*
X199147000Y-81447000D01*
%TO.C,D2*%
X181764000Y-109224000D02*
X183764000Y-109224000D01*
X181764000Y-109224000D02*
X181764000Y-105324000D01*
X183764000Y-109224000D02*
X183764000Y-105324000D01*
%TO.C,SW6*%
X199147000Y-86527000D02*
X199147000Y-100497000D01*
X199147000Y-100497000D02*
X185177000Y-100497000D01*
X185177000Y-100497000D02*
X185177000Y-86527000D01*
X185177000Y-86527000D02*
X199147000Y-86527000D01*
%TO.C,SW1*%
X147077000Y-119547000D02*
X147077000Y-105577000D01*
X161047000Y-105577000D02*
X161047000Y-119547000D01*
X161047000Y-119547000D02*
X147077000Y-119547000D01*
X147077000Y-105577000D02*
X161047000Y-105577000D01*
%TO.C,DM1*%
X143664000Y-109224000D02*
X145664000Y-109224000D01*
X143664000Y-109224000D02*
X143664000Y-105324000D01*
X145664000Y-109224000D02*
X145664000Y-105324000D01*
%TO.C,D7*%
X162714000Y-71632000D02*
X164714000Y-71632000D01*
X162714000Y-71632000D02*
X162714000Y-67732000D01*
X164714000Y-71632000D02*
X164714000Y-67732000D01*
%TD*%
M02*
