%TF.GenerationSoftware,KiCad,Pcbnew,(6.0.4)*%
%TF.CreationDate,2022-05-13T18:02:53+01:00*%
%TF.ProjectId,MacroPad,4d616372-6f50-4616-942e-6b696361645f,rev?*%
%TF.SameCoordinates,Original*%
%TF.FileFunction,Paste,Top*%
%TF.FilePolarity,Positive*%
%FSLAX46Y46*%
G04 Gerber Fmt 4.6, Leading zero omitted, Abs format (unit mm)*
G04 Created by KiCad (PCBNEW (6.0.4)) date 2022-05-13 18:02:53*
%MOMM*%
%LPD*%
G01*
G04 APERTURE LIST*
G04 Aperture macros list*
%AMRoundRect*
0 Rectangle with rounded corners*
0 $1 Rounding radius*
0 $2 $3 $4 $5 $6 $7 $8 $9 X,Y pos of 4 corners*
0 Add a 4 corners polygon primitive as box body*
4,1,4,$2,$3,$4,$5,$6,$7,$8,$9,$2,$3,0*
0 Add four circle primitives for the rounded corners*
1,1,$1+$1,$2,$3*
1,1,$1+$1,$4,$5*
1,1,$1+$1,$6,$7*
1,1,$1+$1,$8,$9*
0 Add four rect primitives between the rounded corners*
20,1,$1+$1,$2,$3,$4,$5,0*
20,1,$1+$1,$4,$5,$6,$7,0*
20,1,$1+$1,$6,$7,$8,$9,0*
20,1,$1+$1,$8,$9,$2,$3,0*%
G04 Aperture macros list end*
%ADD10R,1.200000X0.900000*%
%ADD11RoundRect,0.285000X-1.215000X-0.665000X1.215000X-0.665000X1.215000X0.665000X-1.215000X0.665000X0*%
%ADD12RoundRect,0.285000X0.665000X-1.215000X0.665000X1.215000X-0.665000X1.215000X-0.665000X-1.215000X0*%
G04 APERTURE END LIST*
D10*
%TO.C,D9*%
X201814000Y-71032000D03*
X201814000Y-67732000D03*
%TD*%
%TO.C,D3*%
X201814000Y-108624000D03*
X201814000Y-105324000D03*
%TD*%
%TO.C,DR1*%
X144664000Y-88812000D03*
X144664000Y-85512000D03*
%TD*%
%TO.C,D1*%
X163714000Y-108624000D03*
X163714000Y-105324000D03*
%TD*%
%TO.C,D5*%
X182510000Y-88812000D03*
X182510000Y-85512000D03*
%TD*%
%TO.C,D8*%
X182764000Y-71032000D03*
X182764000Y-67732000D03*
%TD*%
%TO.C,D4*%
X163714000Y-88812000D03*
X163714000Y-85512000D03*
%TD*%
D11*
%TO.C,PCB1*%
X136578000Y-52138600D03*
X136578000Y-54678600D03*
X136578000Y-57218600D03*
X136578000Y-59758600D03*
X120238000Y-57218600D03*
X136578000Y-62298600D03*
X136578000Y-64838600D03*
X120238000Y-52138600D03*
X136578000Y-67378600D03*
X136578000Y-69918600D03*
X120238000Y-67378600D03*
X120238000Y-64838600D03*
X120238000Y-62298600D03*
X120238000Y-59758600D03*
X120238000Y-54678600D03*
X120238000Y-69918600D03*
D12*
X128408000Y-70358600D03*
X125868000Y-70358600D03*
X130948000Y-70358600D03*
%TD*%
D10*
%TO.C,D6*%
X201814000Y-88812000D03*
X201814000Y-85512000D03*
%TD*%
%TO.C,D2*%
X182764000Y-108624000D03*
X182764000Y-105324000D03*
%TD*%
%TO.C,DM1*%
X144664000Y-108624000D03*
X144664000Y-105324000D03*
%TD*%
%TO.C,D7*%
X163714000Y-71032000D03*
X163714000Y-67732000D03*
%TD*%
M02*
