M48
; DRILL file {KiCad (6.0.4)} date Tue May 17 18:27:13 2022
; FORMAT={-:-/ absolute / inch / decimal}
; #@! TF.CreationDate,2022-05-17T18:27:13+01:00
; #@! TF.GenerationSoftware,Kicad,Pcbnew,(6.0.4)
; #@! TF.FileFunction,NonPlated,1,2,NPTH
FMAT,2
INCH
; #@! TA.AperFunction,NonPlated,NPTH,ComponentDrill
T1C0.0669
; #@! TA.AperFunction,NonPlated,NPTH,ComponentDrill
T2C0.1575
%
G90
G05
T1
X5.1154Y-4.4316
X5.5154Y-4.4316
X5.8654Y-2.9316
X5.8654Y-3.6816
X5.8654Y-4.4316
X6.2654Y-2.9316
X6.2654Y-3.6816
X6.2654Y-4.4316
X6.6154Y-2.9316
X6.6154Y-3.6816
X6.6154Y-4.4316
X7.0154Y-2.9316
X7.0154Y-3.6816
X7.0154Y-4.4316
X7.3654Y-2.9316
X7.3654Y-3.6816
X7.3654Y-4.4316
X7.7654Y-2.9316
X7.7654Y-3.6816
X7.7654Y-4.4316
T2
X5.3154Y-4.4316
X6.0654Y-2.9316
X6.0654Y-3.6816
X6.0654Y-4.4316
X6.8154Y-2.9316
X6.8154Y-3.6816
X6.8154Y-4.4316
X7.5654Y-2.9316
X7.5654Y-3.6816
X7.5654Y-4.4316
T0
M30
